<svg width="4252" height="417" viewBox="0 0 4252 417" fill="none" xmlns="http://www.w3.org/2000/svg">
<path d="M7 7.11572H3241.47L3417.2 208.558L3241.47 410H7V7.11572Z" fill="white" stroke="black" stroke-width="13.8926"/>
<line x1="3417.2" y1="208.557" x2="3570.02" y2="208.557" stroke="black" stroke-width="13.8926"/>
<path d="M108.795 127.683H165.643V311.676H200.486V127.683H257.028V99.259H108.795V127.683ZM403.567 98.9533H286.202V311.676H403.567V283.252H321.045V218.152H394.398V189.727H321.045V127.378H403.567V98.9533ZM580.046 98.9533V257.273L475.212 98.9533H440.37V311.676H475.212V153.051L580.046 311.676H614.888V98.9533H580.046ZM797.874 251.466C797.874 173.834 685.399 203.787 685.399 155.802C685.399 135.324 700.987 125.544 721.159 126.155C743.165 126.766 755.696 139.909 756.918 154.274H795.428C792.372 117.903 763.642 96.5082 722.993 96.5082C679.592 96.5082 649.946 119.737 649.946 157.024C649.946 235.267 762.725 201.953 762.725 253.3C762.725 271.332 748.972 284.475 724.521 284.475C700.376 284.475 688.15 270.415 686.622 252.994H649.334C649.334 290.587 682.037 313.816 724.521 313.816C771.894 313.816 797.874 283.252 797.874 251.466ZM1038.26 205.009C1038.26 141.437 990.276 96.5082 929.76 96.5082C869.856 96.5082 821.259 141.437 821.259 205.009C821.259 268.887 869.856 313.816 929.76 313.816C990.276 313.816 1038.26 268.887 1038.26 205.009ZM857.019 205.009C857.019 157.024 887.583 127.072 929.76 127.072C971.938 127.072 1002.5 157.024 1002.5 205.009C1002.5 252.994 971.938 283.558 929.76 283.558C887.583 283.558 857.019 252.994 857.019 205.009ZM1179.21 162.831C1179.21 183.92 1166.99 198.896 1139.79 198.896H1101.28V127.683H1139.79C1166.99 127.683 1179.21 141.437 1179.21 162.831ZM1066.43 99.259V311.676H1101.28V226.709H1127.87L1176.77 311.676H1218.34L1165.77 223.653C1201.53 214.79 1214.97 187.894 1214.97 162.831C1214.97 128.294 1190.22 99.259 1139.79 99.259H1066.43ZM1253.43 311.676H1288.28V218.763H1358.57V190.339H1288.28V127.683H1378.44V99.259H1253.43V311.676ZM1404.62 99.259V311.676H1511.28V283.558H1439.46V99.259H1404.62ZM1739.7 205.009C1739.7 141.437 1691.71 96.5082 1631.2 96.5082C1571.29 96.5082 1522.7 141.437 1522.7 205.009C1522.7 268.887 1571.29 313.816 1631.2 313.816C1691.71 313.816 1739.7 268.887 1739.7 205.009ZM1558.45 205.009C1558.45 157.024 1589.02 127.072 1631.2 127.072C1673.37 127.072 1703.94 157.024 1703.94 205.009C1703.94 252.994 1673.37 283.558 1631.2 283.558C1589.02 283.558 1558.45 252.994 1558.45 205.009ZM1810.96 311.982L1850.09 311.676L1897.46 150.912L1942.08 311.676H1981.51L2044.47 99.259H2007.18L1962.87 271.332L1918.55 99.259H1879.43L1831.75 272.249L1787.74 99.259H1750.75L1810.96 311.982ZM2209.76 99.259H2140.38V311.676H2209.76C2277.91 311.676 2322.54 271.638 2322.54 206.232C2322.54 140.52 2277.91 99.259 2209.76 99.259ZM2175.22 283.252V127.683H2209.76C2259.88 127.683 2286.78 157.636 2286.78 206.232C2286.78 254.522 2259.88 283.252 2209.76 283.252H2175.22ZM2468.32 98.9533H2350.96V311.676H2468.32V283.252H2385.8V218.152H2459.15V189.727H2385.8V127.378H2468.32V98.9533ZM2539.96 197.063V127.683H2578.48C2605.68 127.683 2617.9 140.52 2617.9 162.526C2617.9 183.92 2605.68 197.063 2578.48 197.063H2539.96ZM2653.66 162.526C2653.66 127.989 2628.91 99.259 2578.48 99.259H2505.12V311.676H2539.96V225.487H2578.48C2633.8 225.487 2653.66 192.784 2653.66 162.526ZM2680.78 99.259V311.676H2787.45V283.558H2715.62V99.259H2680.78ZM3015.86 205.009C3015.86 141.437 2967.88 96.5082 2907.36 96.5082C2847.45 96.5082 2798.86 141.437 2798.86 205.009C2798.86 268.887 2847.45 313.816 2907.36 313.816C2967.88 313.816 3015.86 268.887 3015.86 205.009ZM2834.62 205.009C2834.62 157.024 2865.18 127.072 2907.36 127.072C2949.54 127.072 2980.1 157.024 2980.1 205.009C2980.1 252.994 2949.54 283.558 2907.36 283.558C2865.18 283.558 2834.62 252.994 2834.62 205.009ZM3096.3 234.656V311.676H3131.14V234.656L3201.44 99.259H3162.93L3113.72 203.481L3064.51 99.259H3025.7L3096.3 234.656Z" fill="black"/>
<path d="M4232.01 193.113L4227.9 122.769L4223.79 193.113H4217.36V192.933C4217.36 184.657 4168.22 180.52 4098.71 178.721V122.23C4126.58 122.41 4146.77 122.59 4152.31 122.59C4153.39 122.59 4153.92 122.59 4153.92 122.59C4145.17 100.281 4124.8 81.3908 4036.34 86.0684C4027.23 86.6081 4017.22 87.3278 4006.68 88.2273C3986.67 90.0264 3968.44 92.0053 3951.82 94.1642C3881.6 102.8 3839.79 112.155 3822.45 116.293C3820.31 116.833 3818.7 117.192 3817.27 117.552C3817.09 117.552 3817.09 117.552 3816.91 117.552C3816.91 117.552 3816.91 117.552 3817.09 117.552C3817.09 117.552 3817.09 117.552 3817.27 117.552H3817.45C3817.63 117.552 3817.63 117.552 3817.81 117.552C3817.99 117.552 3817.99 117.552 3818.16 117.552C3818.34 117.552 3818.34 117.552 3818.52 117.552C3818.7 117.552 3818.88 117.552 3819.06 117.552C3819.24 117.552 3819.41 117.552 3819.41 117.552C3819.77 117.552 3819.95 117.552 3820.31 117.552C3820.49 117.552 3820.49 117.552 3820.67 117.552C3835.32 118.811 3891.25 119.711 3953.25 120.431V151.015C3930.74 158.931 3913.05 170.265 3904.83 176.921C3814.77 177.461 3728.1 179.08 3681.11 179.08C3651.45 146.697 3633.76 124.748 3615.35 110.896C3614.28 109.996 3613.03 109.276 3611.6 108.917C3611.06 108.737 3610.53 108.557 3609.99 108.377C3609.63 108.377 3609.45 108.197 3609.1 108.197C3608.74 108.197 3608.56 108.017 3608.2 108.017C3607.85 108.017 3607.67 107.837 3607.31 107.837C3606.95 107.837 3606.42 107.657 3605.88 107.657C3584.62 105.498 3550.67 132.305 3554.06 180.52C3557.28 227.655 3585.87 244.746 3605.7 251.223C3605.88 251.223 3606.06 251.403 3606.24 251.403C3606.77 251.583 3607.49 251.763 3608.02 251.943C3608.2 251.943 3608.38 252.123 3608.56 252.123C3609.28 252.302 3609.99 252.482 3610.71 252.662C3612.67 253.202 3614.64 253.742 3616.42 254.102C3622.5 255.361 3669.85 262.557 3733.64 271.193C3727.39 270.293 3721.14 269.574 3715.24 268.674L3714.52 276.59L3713.27 289.543C3705.59 291.342 3699.87 298.179 3699.87 306.454C3699.87 315.99 3707.56 323.726 3717.03 323.726C3726.5 323.726 3734.18 315.99 3734.18 306.454C3734.18 303.036 3733.29 299.978 3731.5 297.279L3742.58 280.548L3747.4 273.172C3837.46 285.225 3955.04 299.258 4038.31 304.116L4043.13 312.391L4058.14 337.578C4053.68 342.616 4051 349.272 4051 356.649C4051 372.66 4063.86 385.614 4079.77 385.614C4095.67 385.614 4108.54 372.66 4108.54 356.649C4108.54 342.616 4098.71 330.922 4085.48 328.223L4084.23 313.831L4083.52 305.915C4090.67 305.915 4097.28 305.915 4103.35 305.735C4105.14 305.735 4106.93 305.555 4108.71 305.555C4109.07 305.555 4109.61 305.555 4109.96 305.555C4111.22 305.555 4112.65 305.375 4113.9 305.375C4114.43 305.375 4114.97 305.375 4115.33 305.195C4116.58 305.195 4117.65 305.015 4118.9 304.835C4119.44 304.835 4119.97 304.655 4120.51 304.655C4121.58 304.475 4122.65 304.475 4123.72 304.296C4124.26 304.296 4124.8 304.116 4125.33 304.116C4126.4 303.936 4127.48 303.936 4128.37 303.756C4128.91 303.756 4129.44 303.576 4129.98 303.576C4131.05 303.396 4131.94 303.396 4133.02 303.216C4133.55 303.216 4134.09 303.036 4134.45 303.036C4135.34 302.856 4136.41 302.676 4137.3 302.497C4137.84 302.497 4138.2 302.317 4138.73 302.317C4139.63 302.137 4140.52 301.957 4141.41 301.777C4141.95 301.777 4142.31 301.597 4142.84 301.597C4143.74 301.417 4144.63 301.237 4145.52 301.057C4146.06 300.877 4146.42 300.877 4146.95 300.697C4147.85 300.518 4148.74 300.338 4149.46 300.158C4149.81 299.978 4150.35 299.978 4150.71 299.798C4151.6 299.618 4152.31 299.438 4153.21 299.258C4153.56 299.078 4154.1 299.078 4154.46 298.898C4155.35 298.718 4156.07 298.539 4156.96 298.179C4157.32 297.999 4157.67 297.999 4158.03 297.819C4158.93 297.639 4159.64 297.279 4160.36 297.099C4160.71 296.919 4161.07 296.919 4161.43 296.739C4162.14 296.56 4163.04 296.2 4163.75 296.02C4164.11 295.84 4164.47 295.84 4164.64 295.66C4165.36 295.48 4166.25 295.12 4166.97 294.761C4167.32 294.581 4167.5 294.581 4167.86 294.401C4168.75 294.041 4169.47 293.861 4170.18 293.501C4170.36 293.501 4170.54 293.321 4170.72 293.321C4171.61 292.961 4172.51 292.602 4173.4 292.242C4173.58 292.242 4173.58 292.242 4173.76 292.062C4176.62 290.803 4179.3 289.543 4181.8 288.284C4181.98 288.104 4182.16 288.104 4182.33 287.924C4183.05 287.564 4183.58 287.204 4184.3 286.845C4184.48 286.665 4184.84 286.485 4185.01 286.485C4185.55 286.125 4186.09 285.945 4186.62 285.585C4186.98 285.405 4187.16 285.225 4187.52 285.046C4188.05 284.686 4188.41 284.506 4188.77 284.146C4189.12 283.966 4189.3 283.786 4189.66 283.606C4190.02 283.246 4190.55 283.067 4190.91 282.707C4191.27 282.527 4191.45 282.347 4191.8 282.167C4192.16 281.987 4192.52 281.627 4192.88 281.447C4193.23 281.267 4193.41 281.088 4193.77 280.728C4194.13 280.548 4194.48 280.188 4194.84 280.008C4195.2 279.828 4195.38 279.468 4195.74 279.289C4196.09 279.109 4196.27 278.749 4196.63 278.569C4196.99 278.389 4197.17 278.029 4197.52 277.849C4197.88 277.669 4198.06 277.31 4198.42 277.13C4198.77 276.95 4198.95 276.59 4199.13 276.41C4199.31 276.23 4199.67 275.87 4199.85 275.69C4200.02 275.51 4200.38 275.151 4200.56 274.971C4200.74 274.791 4201.1 274.431 4201.28 274.251C4201.45 274.071 4201.81 273.711 4201.99 273.531C4202.17 273.352 4202.53 272.992 4202.7 272.812C4202.88 272.632 4203.24 272.272 4203.42 272.092C4203.6 271.912 4203.78 271.553 4203.96 271.373C4204.13 271.193 4204.49 270.833 4204.67 270.653C4204.85 270.473 4205.03 270.293 4205.21 269.933C4205.39 269.753 4205.56 269.394 4205.92 269.214C4206.1 269.034 4206.28 268.854 4206.46 268.494C4206.64 268.314 4206.81 267.954 4206.99 267.774C4207.17 267.595 4207.35 267.415 4207.35 267.235C4207.53 266.875 4207.71 266.695 4207.89 266.335C4208.07 266.155 4208.07 265.975 4208.24 265.795C4208.42 265.436 4208.6 265.256 4208.78 264.896C4208.78 264.896 4208.78 264.716 4208.96 264.716C4209.49 263.996 4209.85 263.277 4210.21 262.557C4210.39 262.377 4210.39 262.197 4210.57 262.017C4210.75 261.838 4210.92 261.478 4210.92 261.298C4211.1 261.118 4211.1 260.938 4211.28 260.578C4211.46 260.398 4211.46 260.038 4211.64 259.859C4211.82 259.679 4211.82 259.319 4212 259.139C4212.18 258.959 4212.18 258.779 4212.35 258.419C4212.53 258.239 4212.53 257.88 4212.71 257.7C4212.89 257.52 4212.89 257.34 4212.89 257.16C4213.07 256.98 4213.07 256.62 4213.25 256.44C4213.25 256.26 4213.43 256.081 4213.43 255.901C4213.6 255.721 4213.6 255.361 4213.78 255.181C4213.78 255.001 4213.96 254.821 4213.96 254.641C4214.14 254.461 4214.14 254.102 4214.32 253.922C4214.32 253.742 4214.5 253.562 4214.5 253.562C4214.68 253.202 4214.68 253.022 4214.86 252.662C4214.86 252.482 4214.86 252.482 4215.03 252.302C4215.21 251.943 4215.21 251.763 4215.39 251.403V251.223C4215.57 250.863 4215.57 250.503 4215.75 250.323V250.144C4217.18 244.926 4217.36 241.148 4217.36 239.889C4217.36 239.529 4217.36 239.349 4217.36 239.349V232.333H4223.79L4227.9 302.676L4232.01 232.333C4242.55 232.333 4251.13 223.697 4251.13 213.083V212.723C4251.31 201.749 4242.73 193.113 4232.01 193.113ZM3962.19 121.15C4006.68 121.69 4053.32 122.05 4089.42 122.23V178.361C4077.62 178.001 4065.11 177.821 4052.43 177.641C4051.18 155.692 4029.02 142.559 4002.21 142.559C3988.28 142.559 3974.7 144.898 3962.37 148.676V121.15H3962.19Z" fill="black"/>
</svg>
