<svg width="1645" height="417" viewBox="0 0 1645 417" fill="none" xmlns="http://www.w3.org/2000/svg">
<path d="M7.86914 7H667.067L842.796 208.442L667.067 409.884H7.86914V7Z" fill="white" stroke="black" stroke-width="13.8926"/>
<line x1="842.801" y1="208.441" x2="995.619" y2="208.441" stroke="black" stroke-width="13.8926"/>
<path d="M111.361 129.606H168.209V313.599H203.052V129.606H259.595V101.181H111.361V129.606ZM288.769 313.599H323.611V220.685H393.908V192.261H323.611V129.606H413.774V101.181H288.769V313.599ZM509.331 101.181H439.951V313.599H509.331C577.488 313.599 622.111 273.56 622.111 208.154C622.111 142.442 577.488 101.181 509.331 101.181ZM474.794 285.174V129.606H509.331C559.455 129.606 586.351 159.558 586.351 208.154C586.351 256.445 559.455 285.174 509.331 285.174H474.794Z" fill="black"/>
<path d="M1625.01 193.005L1620.9 122.661L1616.79 193.005H1610.36V192.825C1610.36 184.549 1561.22 180.411 1491.71 178.612V122.121C1519.58 122.301 1539.77 122.481 1545.31 122.481C1546.39 122.481 1546.92 122.481 1546.92 122.481C1538.17 100.173 1517.8 81.2824 1429.34 85.96C1420.23 86.4997 1410.22 87.2194 1399.68 88.1189C1379.67 89.918 1361.44 91.897 1344.82 94.0558C1274.6 102.691 1232.79 112.047 1215.45 116.184C1213.31 116.724 1211.7 117.084 1210.27 117.444C1210.09 117.444 1210.09 117.444 1209.91 117.444C1209.91 117.444 1209.91 117.444 1210.09 117.444C1210.09 117.444 1210.09 117.444 1210.27 117.444H1210.45C1210.63 117.444 1210.63 117.444 1210.81 117.444C1210.99 117.444 1210.99 117.444 1211.16 117.444C1211.34 117.444 1211.34 117.444 1211.52 117.444C1211.7 117.444 1211.88 117.444 1212.06 117.444C1212.24 117.444 1212.41 117.444 1212.41 117.444C1212.77 117.444 1212.95 117.444 1213.31 117.444C1213.49 117.444 1213.49 117.444 1213.67 117.444C1228.32 118.703 1284.25 119.603 1346.25 120.322V150.906C1323.74 158.822 1306.05 170.156 1297.83 176.813C1207.77 177.353 1121.1 178.972 1074.11 178.972C1044.45 146.589 1026.76 124.64 1008.35 110.787C1007.28 109.888 1006.03 109.168 1004.6 108.808C1004.06 108.628 1003.53 108.448 1002.99 108.268C1002.63 108.268 1002.45 108.089 1002.1 108.089C1001.74 108.089 1001.56 107.909 1001.2 107.909C1000.85 107.909 1000.67 107.729 1000.31 107.729C999.953 107.729 999.417 107.549 998.881 107.549C977.617 105.39 943.666 132.196 947.061 180.411C950.277 227.547 978.867 244.638 998.702 251.115C998.881 251.115 999.059 251.295 999.238 251.295C999.774 251.474 1000.49 251.654 1001.02 251.834C1001.2 251.834 1001.38 252.014 1001.56 252.014C1002.28 252.194 1002.99 252.374 1003.71 252.554C1005.67 253.094 1007.64 253.633 1009.42 253.993C1015.5 255.252 1062.85 262.449 1126.64 271.084C1120.39 270.185 1114.14 269.465 1108.24 268.566L1107.52 276.482L1106.27 289.435C1098.59 291.234 1092.87 298.07 1092.87 306.346C1092.87 315.881 1100.56 323.617 1110.03 323.617C1119.5 323.617 1127.18 315.881 1127.18 306.346C1127.18 302.928 1126.29 299.869 1124.5 297.171L1135.58 280.439L1140.4 273.063C1230.46 285.117 1348.04 299.15 1431.31 304.007L1436.13 312.283L1451.14 337.47C1446.68 342.507 1444 349.164 1444 356.54C1444 372.552 1456.86 385.505 1472.77 385.505C1488.67 385.505 1501.54 372.552 1501.54 356.54C1501.54 342.507 1491.71 330.813 1478.48 328.115L1477.23 313.722L1476.52 305.806C1483.67 305.806 1490.28 305.806 1496.35 305.626C1498.14 305.626 1499.93 305.447 1501.71 305.447C1502.07 305.447 1502.61 305.447 1502.96 305.447C1504.22 305.447 1505.65 305.267 1506.9 305.267C1507.43 305.267 1507.97 305.267 1508.33 305.087C1509.58 305.087 1510.65 304.907 1511.9 304.727C1512.44 304.727 1512.97 304.547 1513.51 304.547C1514.58 304.367 1515.65 304.367 1516.72 304.187C1517.26 304.187 1517.8 304.007 1518.33 304.007C1519.4 303.827 1520.48 303.827 1521.37 303.647C1521.91 303.647 1522.44 303.468 1522.98 303.468C1524.05 303.288 1524.94 303.288 1526.02 303.108C1526.55 303.108 1527.09 302.928 1527.45 302.928C1528.34 302.748 1529.41 302.568 1530.3 302.388C1530.84 302.388 1531.2 302.208 1531.73 302.208C1532.63 302.028 1533.52 301.848 1534.41 301.668C1534.95 301.668 1535.31 301.489 1535.84 301.489C1536.74 301.309 1537.63 301.129 1538.52 300.949C1539.06 300.769 1539.42 300.769 1539.95 300.589C1540.85 300.409 1541.74 300.229 1542.46 300.049C1542.81 299.869 1543.35 299.869 1543.71 299.69C1544.6 299.51 1545.31 299.33 1546.21 299.15C1546.56 298.97 1547.1 298.97 1547.46 298.79C1548.35 298.61 1549.07 298.43 1549.96 298.07C1550.32 297.89 1550.67 297.89 1551.03 297.711C1551.93 297.531 1552.64 297.171 1553.36 296.991C1553.71 296.811 1554.07 296.811 1554.43 296.631C1555.14 296.451 1556.04 296.091 1556.75 295.911C1557.11 295.732 1557.47 295.732 1557.64 295.552C1558.36 295.372 1559.25 295.012 1559.97 294.652C1560.32 294.472 1560.5 294.472 1560.86 294.292C1561.75 293.932 1562.47 293.753 1563.18 293.393C1563.36 293.393 1563.54 293.213 1563.72 293.213C1564.61 292.853 1565.51 292.493 1566.4 292.133C1566.58 292.133 1566.58 292.133 1566.76 291.954C1569.62 290.694 1572.3 289.435 1574.8 288.175C1574.98 287.996 1575.16 287.996 1575.33 287.816C1576.05 287.456 1576.58 287.096 1577.3 286.736C1577.48 286.556 1577.84 286.376 1578.01 286.376C1578.55 286.017 1579.09 285.837 1579.62 285.477C1579.98 285.297 1580.16 285.117 1580.52 284.937C1581.05 284.577 1581.41 284.397 1581.77 284.038C1582.12 283.858 1582.3 283.678 1582.66 283.498C1583.02 283.138 1583.55 282.958 1583.91 282.598C1584.27 282.418 1584.45 282.239 1584.8 282.059C1585.16 281.879 1585.52 281.519 1585.88 281.339C1586.23 281.159 1586.41 280.979 1586.77 280.619C1587.13 280.439 1587.48 280.08 1587.84 279.9C1588.2 279.72 1588.38 279.36 1588.74 279.18C1589.09 279 1589.27 278.64 1589.63 278.46C1589.99 278.281 1590.17 277.921 1590.52 277.741C1590.88 277.561 1591.06 277.201 1591.42 277.021C1591.77 276.841 1591.95 276.482 1592.13 276.302C1592.31 276.122 1592.67 275.762 1592.85 275.582C1593.02 275.402 1593.38 275.042 1593.56 274.862C1593.74 274.682 1594.1 274.323 1594.28 274.143C1594.45 273.963 1594.81 273.603 1594.99 273.423C1595.17 273.243 1595.53 272.883 1595.7 272.703C1595.88 272.524 1596.24 272.164 1596.42 271.984C1596.6 271.804 1596.78 271.444 1596.96 271.264C1597.13 271.084 1597.49 270.724 1597.67 270.545C1597.85 270.365 1598.03 270.185 1598.21 269.825C1598.39 269.645 1598.56 269.285 1598.92 269.105C1599.1 268.925 1599.28 268.746 1599.46 268.386C1599.64 268.206 1599.81 267.846 1599.99 267.666C1600.17 267.486 1600.35 267.306 1600.35 267.126C1600.53 266.767 1600.71 266.587 1600.89 266.227C1601.07 266.047 1601.07 265.867 1601.24 265.687C1601.42 265.327 1601.6 265.147 1601.78 264.788C1601.78 264.788 1601.78 264.608 1601.96 264.608C1602.49 263.888 1602.85 263.168 1603.21 262.449C1603.39 262.269 1603.39 262.089 1603.57 261.909C1603.75 261.729 1603.92 261.369 1603.92 261.189C1604.1 261.01 1604.1 260.83 1604.28 260.47C1604.46 260.29 1604.46 259.93 1604.64 259.75C1604.82 259.57 1604.82 259.21 1605 259.031C1605.18 258.851 1605.18 258.671 1605.35 258.311C1605.53 258.131 1605.53 257.771 1605.71 257.591C1605.89 257.411 1605.89 257.231 1605.89 257.052C1606.07 256.872 1606.07 256.512 1606.25 256.332C1606.25 256.152 1606.43 255.972 1606.43 255.792C1606.6 255.612 1606.6 255.252 1606.78 255.073C1606.78 254.893 1606.96 254.713 1606.96 254.533C1607.14 254.353 1607.14 253.993 1607.32 253.813C1607.32 253.633 1607.5 253.453 1607.5 253.453C1607.68 253.094 1607.68 252.914 1607.86 252.554C1607.86 252.374 1607.86 252.374 1608.03 252.194C1608.21 251.834 1608.21 251.654 1608.39 251.295V251.115C1608.57 250.755 1608.57 250.395 1608.75 250.215V250.035C1610.18 244.818 1610.36 241.04 1610.36 239.78C1610.36 239.421 1610.36 239.241 1610.36 239.241V232.224H1616.79L1620.9 302.568L1625.01 232.224C1635.55 232.224 1644.13 223.589 1644.13 212.974V212.615C1644.31 201.64 1635.73 193.005 1625.01 193.005ZM1355.19 121.042C1399.68 121.582 1446.32 121.941 1482.42 122.121V178.252C1470.62 177.892 1458.11 177.713 1445.43 177.533C1444.18 155.584 1422.02 142.451 1395.21 142.451C1381.28 142.451 1367.7 144.79 1355.37 148.568V121.042H1355.19Z" fill="black"/>
</svg>
